<!-- Generated by IcoMoon.io -->
<svg version="1.1" xmlns="http://www.w3.org/2000/svg" width="512" height="512" viewBox="0 0 512 512">
<title></title>
<g id="icomoon-ignore">
</g>
<path fill="#000" d="M256-0.544c-141.456 0-256.56 115.072-256.56 256.544s115.104 256.544 256.56 256.544 256.56-115.072 256.56-256.544-115.104-256.544-256.56-256.544zM256 495.456c-132.032 0-239.44-107.424-239.44-239.456s107.408-239.456 239.44-239.456 239.44 107.424 239.44 239.456-107.408 239.456-239.44 239.456zM396.704 176.736c1.76-3.264 3.232-6.704 4.368-10.288 1.072-3.392-0.032-7.072-2.816-9.296-2.768-2.208-6.64-2.464-9.68-0.672-8.208 4.88-17.040 8.48-26.336 10.768-11.168-10.096-25.84-15.792-40.992-15.792-33.68 0-61.072 27.392-61.072 61.040 0 0.848 0.016 1.68 0.048 2.528-35.76-4.464-68.768-22.64-91.76-50.848-1.76-2.176-4.48-3.312-7.296-3.12-2.8 0.224-5.312 1.792-6.72 4.24-5.408 9.28-8.272 19.888-8.272 30.704 0 10.24 2.544 20.096 7.216 28.832-1.184 0.192-2.352 0.624-3.424 1.248-2.608 1.552-4.224 4.672-4.224 7.696 0 18.16 8.080 34.832 21.104 46.16-0.192 0.176-0.368 0.368-0.56 0.56-2 2.272-2.656 5.408-1.728 8.288 5.616 17.504 18.624 31.136 34.944 37.84-16.656 8.24-36 11.456-54.496 9.264-3.904-0.352-7.696 1.856-9.056 5.632-1.328 3.744 0.080 7.92 3.44 10.080 25.472 16.32 54.896 24.944 85.104 24.944 98.88 0 157.984-80.32 157.984-157.968 0-0.88 0-1.744-0.016-2.624 9.552-7.456 17.84-16.368 24.656-26.56 2.112-3.152 1.888-7.344-0.56-10.256-2.416-2.864-6.4-3.856-9.856-2.4zM368.784 204.816c-2.352 1.696-3.696 4.464-3.552 7.376 0.096 2.112 0.144 4.256 0.144 6.368 0 69.248-52.688 140.88-140.864 140.88-15.824 0-31.424-2.656-46.192-7.808 17.68-3.376 34.256-10.912 48.72-22.24 2.848-2.24 3.984-6.016 2.832-9.456-1.152-3.424-4.336-5.76-7.952-5.824-14.256-0.288-27.184-7.376-35.104-18.592 4.048-0.272 8.016-0.944 11.872-1.984 3.824-1.040 6.416-4.576 6.288-8.544-0.128-3.952-2.976-7.312-6.864-8.096-16.048-3.216-28.64-15.088-33.296-30.48 4.256 1.072 8.624 1.696 12.992 1.84 3.76-0.016 7.248-2.32 8.416-5.936s-0.208-7.6-3.392-9.712c-12.24-8.192-19.552-21.856-19.552-36.592 0-3.568 0.432-7.088 1.264-10.528 27.696 28.4 65.28 45.552 105.088 47.552 2.816 0.016 5.28-0.992 6.992-3.056s2.368-4.8 1.76-7.424c-0.752-3.248-1.136-6.624-1.136-10.032 0-24.24 19.728-43.952 43.968-43.952 12.112 0 23.808 5.056 32.080 13.888 2.016 2.16 4.992 3.104 7.904 2.544 2.64-0.528 5.248-1.136 7.824-1.84-1.152 0.864-2.352 1.664-3.616 2.416-3.456 2.064-4.992 6.288-3.696 10.096s5.184 6.304 9.104 5.712c0.976-0.112 1.936-0.24 2.912-0.368-1.584 1.312-3.248 2.576-4.944 3.792z"></path>
</svg>
